<?xml version="1.0" standalone="no"?>
<!DOCTYPE svg PUBLIC "-//W3C//DTD SVG 20010904//EN"
 "http://www.w3.org/TR/2001/REC-SVG-20010904/DTD/svg10.dtd">
<svg version="1.0" xmlns="http://www.w3.org/2000/svg"
 width="807.000000pt" height="436.000000pt" viewBox="0 0 807.000000 436.000000"
 preserveAspectRatio="xMidYMid meet">

<g transform="translate(0.000000,436.000000) scale(0.100000,-0.100000)"
fill="#000000" stroke="none">
<path d="M2923 3965 c-17 -7 -36 -22 -42 -34 -7 -13 -11 -164 -11 -460 l0
-440 24 -28 c24 -28 26 -28 138 -28 101 0 119 3 168 26 74 35 110 67 145 131
26 46 30 63 30 133 0 86 -16 129 -71 194 l-27 32 26 27 c37 39 69 107 75 157
16 143 -63 252 -210 291 -68 18 -203 17 -245 -1z m215 -150 c86 -26 114 -89
73 -165 -20 -39 -84 -77 -144 -87 l-37 -6 0 137 0 136 28 0 c16 0 51 -7 80
-15z m19 -434 c53 -24 77 -68 70 -126 -8 -76 -63 -122 -154 -133 l-43 -5 0
142 0 141 43 0 c23 0 61 -9 84 -19z"/>
<path d="M4315 3971 c-95 -24 -188 -110 -225 -207 -18 -48 -21 -73 -18 -134 8
-132 52 -186 218 -270 126 -63 150 -96 119 -164 -24 -52 -97 -66 -210 -40 -38
9 -82 -32 -82 -76 0 -62 76 -96 199 -88 127 8 220 80 243 189 20 91 -8 179
-73 237 -19 17 -77 51 -129 75 -52 25 -104 57 -116 72 -30 39 -30 129 2 176
48 71 123 97 187 64 28 -15 38 -35 55 -117 8 -40 57 -64 96 -47 52 21 61 65
34 155 -18 62 -72 126 -128 152 -49 23 -129 34 -172 23z"/>
<path d="M3670 3952 c-68 -36 -126 -134 -167 -282 -21 -75 -29 -322 -13 -402
36 -186 125 -288 250 -288 63 0 106 18 157 63 66 60 115 185 94 240 -15 39
-54 61 -88 50 -30 -10 -45 -34 -62 -100 -13 -49 -63 -103 -95 -103 -12 0 -31
7 -43 15 -24 17 -57 97 -67 162 -6 41 -6 42 32 54 108 35 196 108 246 206 75
149 45 327 -64 383 -51 26 -133 27 -180 2z m120 -147 c20 -24 14 -116 -10
-168 -29 -62 -126 -145 -146 -125 -7 8 15 133 33 183 25 73 62 125 87 125 13
0 29 -7 36 -15z"/>
<path d="M4681 3944 c-24 -30 -26 -43 -10 -77 17 -38 50 -47 164 -47 l104 0 3
-401 3 -401 24 -19 c13 -10 36 -19 51 -19 15 0 38 9 51 19 l24 19 3 401 3 401
105 0 c139 0 174 17 174 86 0 13 -9 33 -20 44 -19 19 -33 20 -339 20 l-320 0
-20 -26z"/>
<path d="M7230 3669 c-329 -16 -1222 -58 -1602 -75 l-148 -7 0 -68 0 -69 1098
-2 1097 -3 12 -240 c49 -991 53 -1120 53 -1844 l0 -721 -22 -4 c-13 -2 -189
-11 -393 -20 -843 -36 -1513 -67 -1552 -72 l-43 -5 0 -70 0 -69 1035 0 c1185
0 1055 -13 1055 103 0 64 0 65 30 70 30 6 30 8 30 69 0 35 -7 198 -15 363 -43
871 -45 942 -45 1709 0 602 -3 776 -12 788 -7 9 -24 18 -38 20 -24 3 -25 7
-28 73 -2 38 -8 75 -14 82 -13 16 -25 16 -498 -8z m440 -104 l0 -45 -917 1
c-505 1 -911 3 -903 5 8 1 128 8 265 14 218 9 412 18 1250 59 94 4 200 9 238
10 l67 1 0 -45z m70 -3050 l0 -45 -887 1 c-489 1 -877 3 -863 5 27 4 660 35
1215 59 193 9 361 17 375 19 14 2 55 4 93 5 l67 1 0 -45z"/>
<path d="M450 3501 c-5 -11 -10 -49 -10 -85 0 -58 -2 -65 -21 -68 -12 -2 -27
-11 -33 -20 -7 -12 -2 -185 19 -610 26 -523 30 -694 35 -1451 5 -917 3 -876
51 -877 17 0 29 -44 29 -111 0 -20 6 -41 13 -47 8 -7 133 -5 412 9 1171 55
1473 69 1503 69 l32 0 0 80 0 80 -945 0 -945 0 -4 22 c-3 13 -17 284 -32 603
-25 504 -29 685 -32 1381 l-3 802 148 6 c81 4 326 16 543 26 217 11 553 27
745 35 193 9 427 20 520 25 94 5 187 10 208 10 l37 0 0 70 0 70 -1130 0
c-1106 0 -1130 0 -1140 -19z m1786 -63 c3 -4 -277 -17 -1286 -63 -173 -8 -341
-17 -372 -20 l-58 -5 0 43 c0 24 2 46 4 48 5 5 1707 2 1712 -3z m164 -3054
c-14 -2 -144 -8 -290 -14 -146 -6 -449 -19 -675 -30 -225 -11 -471 -22 -545
-25 -74 -3 -172 -8 -217 -11 l-83 -6 0 46 0 46 918 -1 c504 -1 906 -3 892 -5z"/>
<path d="M6120 3053 c-41 -21 -58 -69 -59 -169 -1 -33 -9 -94 -20 -135 -10
-41 -31 -146 -46 -234 -16 -88 -31 -163 -34 -167 -4 -4 -23 3 -43 17 -76 51
-221 59 -304 17 -117 -60 -212 -264 -259 -552 -18 -111 -20 -297 -4 -387 24
-137 -62 -373 -136 -373 -46 0 -84 80 -110 226 -26 151 -18 306 40 774 14 113
29 282 32 375 7 211 -4 264 -69 319 -53 46 -96 59 -171 54 -121 -8 -184 -58
-309 -247 -148 -223 -217 -386 -296 -697 -36 -143 -48 -179 -55 -162 -9 24
-14 563 -9 833 2 88 3 170 3 183 -2 35 -59 55 -148 50 -116 -6 -111 10 -122
-328 -11 -350 0 -694 34 -1028 36 -355 51 -417 107 -456 32 -23 152 -21 198 2
43 21 44 26 64 298 32 406 139 842 277 1118 65 132 157 275 188 293 18 11 21
9 33 -25 22 -63 13 -271 -26 -597 -62 -520 -64 -705 -10 -875 56 -180 139
-246 296 -239 126 7 210 68 254 186 10 26 19 50 21 52 2 3 17 -11 33 -31 63
-77 176 -114 293 -98 162 23 217 151 273 640 9 80 20 149 25 155 5 5 9 -54 9
-141 0 -179 18 -550 29 -590 12 -46 50 -66 125 -67 130 -1 142 21 125 234 -7
93 -13 450 -16 908 -3 712 -4 756 -22 797 -11 23 -31 50 -45 59 -39 26 -104
29 -146 8z m-276 -799 c33 -33 66 -139 66 -210 0 -149 -131 -687 -191 -784
l-22 -35 -28 60 c-89 192 -75 576 30 826 39 91 87 169 105 169 7 0 25 -12 40
-26z"/>
<path d="M1120 2957 c-116 -26 -154 -67 -200 -216 -84 -269 -104 -431 -97
-755 8 -348 43 -582 119 -786 26 -70 42 -95 88 -142 67 -67 110 -82 221 -82
180 1 253 99 252 339 -1 228 -93 458 -207 519 l-36 19 110 59 c224 117 270
171 170 198 -52 14 -85 7 -144 -30 -58 -37 -296 -143 -304 -135 -19 19 -9 47
26 69 154 99 311 474 301 720 -4 71 -8 89 -34 131 -51 82 -151 116 -265 92z
m94 -269 c12 -66 -12 -238 -48 -344 -34 -102 -62 -164 -73 -164 -18 0 17 272
57 435 36 144 49 159 64 73z m-36 -970 c16 -20 42 -74 57 -120 37 -108 47
-293 21 -381 -9 -32 -20 -57 -24 -57 -12 0 -60 138 -86 251 -29 120 -60 344
-51 359 9 15 49 -10 83 -52z"/>
<path d="M6794 2951 c-125 -58 -212 -203 -229 -378 -14 -145 15 -259 186 -739
l43 -121 -64 -70 c-79 -86 -134 -176 -162 -266 -17 -57 -20 -86 -16 -170 6
-117 22 -165 76 -220 49 -50 123 -77 216 -77 140 0 243 55 301 161 25 46 30
67 33 148 6 122 -9 204 -68 377 l-48 142 151 118 c159 125 237 192 237 204 0
13 -49 60 -63 60 -17 0 -156 -91 -281 -183 -49 -37 -92 -64 -97 -62 -9 6 -98
273 -134 405 -32 116 -43 280 -26 370 37 189 113 220 184 76 47 -93 69 -220
61 -353 l-7 -112 25 -6 c14 -4 40 -5 59 -3 53 5 61 30 55 183 -7 204 -56 365
-133 440 -84 81 -216 115 -299 76z m85 -1484 c26 -89 43 -265 31 -327 -5 -25
-9 -48 -10 -52 0 -11 -61 -78 -71 -78 -19 0 -83 67 -100 105 -33 72 -20 204
30 307 22 46 77 118 90 118 5 0 18 -33 30 -73z"/>
<path d="M2303 2809 c-17 -5 -50 -30 -72 -55 -52 -59 -139 -230 -186 -364 -37
-107 -135 -452 -135 -477 0 -7 -4 -13 -10 -13 -6 0 -10 136 -12 354 -3 332 -4
355 -22 375 -44 48 -161 52 -214 6 l-27 -23 -3 -199 c-7 -424 26 -1065 69
-1317 30 -180 48 -202 163 -194 95 6 106 19 106 128 0 189 53 616 111 903 50
244 132 506 198 632 25 50 26 50 29 20 2 -16 -4 -99 -13 -183 -20 -172 -13
-226 33 -262 46 -37 138 -19 180 35 28 36 40 81 58 223 27 218 15 323 -42 374
-49 43 -136 59 -211 37z"/>
<path d="M2709 2759 c-41 -24 -59 -49 -70 -98 -21 -94 88 -182 209 -168 137
15 163 220 36 273 -50 21 -132 17 -175 -7z"/>
<path d="M3420 2496 c-138 -37 -204 -141 -250 -396 -26 -147 -34 -289 -21
-387 9 -71 8 -99 -10 -195 -11 -62 -29 -147 -40 -188 -23 -84 -67 -190 -80
-190 -9 0 -25 54 -41 139 -6 31 -13 269 -17 528 l-6 472 -23 23 c-20 20 -32
23 -107 23 -75 0 -87 -3 -107 -23 -23 -22 -23 -23 -26 -379 -5 -521 16 -748
79 -850 59 -95 287 -124 377 -48 38 31 79 126 99 223 8 42 17 79 18 80 2 2 20
-15 40 -37 110 -122 332 -147 462 -52 76 55 139 220 190 498 30 166 28 173
-47 173 -33 0 -52 -5 -64 -18 -9 -11 -45 -108 -81 -216 -71 -221 -142 -366
-177 -366 -20 0 -72 69 -104 137 -37 79 -61 163 -66 233 l-3 45 52 6 c72 9
133 47 176 111 130 190 157 497 53 601 -57 57 -177 80 -276 53z m161 -209 c19
-71 6 -230 -26 -314 -28 -74 -94 -163 -121 -163 -24 0 -26 23 -14 142 14 138
53 306 87 373 l25 49 19 -23 c10 -13 24 -42 30 -64z"/>
<path d="M2766 779 c-55 -13 -105 -54 -127 -103 -17 -37 -19 -69 -19 -297 0
-281 2 -293 55 -287 43 5 55 37 55 151 l0 97 69 0 c74 0 101 14 101 50 0 36
-27 50 -101 50 l-69 0 0 95 c0 90 2 98 26 122 24 24 30 25 92 20 37 -3 75 -1
84 4 26 14 23 65 -4 83 -31 19 -114 27 -162 15z"/>
<path d="M3502 757 c-22 -23 -22 -29 -22 -323 0 -325 3 -344 55 -344 42 0 55
25 55 101 0 38 3 69 7 69 4 0 46 -38 94 -85 87 -86 119 -101 147 -73 30 30 13
62 -77 152 l-90 89 48 22 c84 39 131 115 131 210 0 71 -18 114 -64 152 -48 39
-96 53 -188 53 -65 0 -77 -3 -96 -23z m194 -97 c104 -40 39 -220 -81 -220
l-25 0 0 113 c0 63 3 117 7 121 8 8 60 0 99 -14z"/>
<path d="M4055 766 c-92 -40 -152 -210 -143 -398 9 -180 74 -278 183 -278 46
0 84 20 123 64 64 73 67 168 6 174 -36 4 -46 -7 -63 -66 -13 -47 -49 -77 -80
-67 -23 7 -51 63 -58 116 -5 32 -3 39 11 39 27 0 91 36 126 72 97 97 107 268
20 329 -35 25 -89 31 -125 15z m78 -126 c14 -38 -9 -105 -49 -145 -64 -65 -80
-38 -45 75 30 96 74 128 94 70z"/>
<path d="M4344 769 c-12 -4 -24 -15 -28 -25 -7 -19 140 -493 184 -590 24 -54
33 -64 54 -64 30 0 52 20 72 68 33 79 182 575 177 589 -7 18 -41 32 -64 26
-25 -7 -38 -41 -109 -276 -35 -114 -67 -204 -71 -200 -4 4 -37 105 -74 223
-37 118 -72 222 -76 231 -10 21 -38 28 -65 18z"/>
<path d="M5000 769 c-89 -37 -150 -187 -150 -373 0 -146 44 -257 115 -290 41
-20 97 -20 134 -2 99 51 148 215 68 224 -36 4 -55 -12 -63 -54 -6 -35 -47 -84
-70 -84 -23 0 -52 36 -63 77 -19 67 -15 79 30 92 50 15 123 81 151 135 29 57
35 153 13 200 -30 63 -108 99 -165 75z m70 -118 c15 -30 12 -52 -15 -107 -21
-42 -66 -84 -90 -84 -4 0 -4 23 -1 52 16 115 76 195 106 139z"/>
<path d="M5287 762 c-15 -16 -17 -54 -17 -333 0 -232 3 -318 12 -327 19 -19
66 -15 78 7 5 11 10 52 10 91 l0 72 99 -91 c57 -53 107 -91 119 -91 25 0 52
25 52 48 0 10 -42 60 -94 111 l-94 94 49 24 c174 87 182 316 14 394 -57 26
-205 27 -228 1z m183 -98 c48 -19 60 -38 60 -93 0 -64 -72 -131 -140 -131 -19
0 -20 6 -20 120 l0 120 30 0 c16 0 48 -7 70 -16z"/>
<path d="M3088 738 c-56 -43 -105 -139 -120 -236 -29 -195 67 -395 195 -409
62 -7 109 11 155 61 63 69 86 140 87 271 0 164 -42 269 -130 321 -63 37 -131
34 -187 -8z m145 -88 c91 -71 95 -336 7 -430 -36 -39 -64 -38 -105 3 -88 88
-85 337 4 426 26 26 61 27 94 1z"/>
</g>
</svg>
